<mxfile host="app.diagrams.net" agent="Mozilla/5.0 (Windows NT 10.0; Win64; x64) AppleWebKit/537.36 (KHTML, like Gecko) Chrome/134.0.0.0 Safari/537.36" version="26.1.3">
  <diagram id="TugoXOORlEivbQlCknEO" name="Strona-1">
    <mxGraphModel dx="1050" dy="530" grid="1" gridSize="10" guides="1" tooltips="1" connect="1" arrows="1" fold="1" page="1" pageScale="1" pageWidth="827" pageHeight="1169" math="0" shadow="0">
      <root>
        <mxCell id="0" />
        <mxCell id="1" parent="0" />
        <mxCell id="DekP-fdwlb1rMsyHYvmg-3" style="edgeStyle=orthogonalEdgeStyle;rounded=0;orthogonalLoop=1;jettySize=auto;html=1;exitX=0.5;exitY=1;exitDx=0;exitDy=0;entryX=0.5;entryY=0;entryDx=0;entryDy=0;" edge="1" parent="1" source="DekP-fdwlb1rMsyHYvmg-1" target="DekP-fdwlb1rMsyHYvmg-2">
          <mxGeometry relative="1" as="geometry" />
        </mxCell>
        <mxCell id="DekP-fdwlb1rMsyHYvmg-1" value="" style="shape=ellipse;html=1;fillColor=strokeColor;strokeWidth=2;verticalLabelPosition=bottom;verticalAlignment=top;strokeColor=#000000;fontSize=18;fontColor=#ffffff;" vertex="1" parent="1">
          <mxGeometry x="394" y="40" width="40" height="40" as="geometry" />
        </mxCell>
        <mxCell id="DekP-fdwlb1rMsyHYvmg-6" style="edgeStyle=orthogonalEdgeStyle;rounded=0;orthogonalLoop=1;jettySize=auto;html=1;exitX=0.5;exitY=1;exitDx=0;exitDy=0;entryX=0.5;entryY=0;entryDx=0;entryDy=0;" edge="1" parent="1" source="DekP-fdwlb1rMsyHYvmg-2" target="DekP-fdwlb1rMsyHYvmg-5">
          <mxGeometry relative="1" as="geometry" />
        </mxCell>
        <mxCell id="DekP-fdwlb1rMsyHYvmg-2" value="Zaloguj" style="rounded=0;whiteSpace=wrap;html=1;" vertex="1" parent="1">
          <mxGeometry x="364" y="110" width="100" height="50" as="geometry" />
        </mxCell>
        <mxCell id="DekP-fdwlb1rMsyHYvmg-8" style="edgeStyle=orthogonalEdgeStyle;rounded=0;orthogonalLoop=1;jettySize=auto;html=1;exitX=0.5;exitY=1;exitDx=0;exitDy=0;entryX=0.5;entryY=0;entryDx=0;entryDy=0;" edge="1" parent="1" source="DekP-fdwlb1rMsyHYvmg-5" target="DekP-fdwlb1rMsyHYvmg-7">
          <mxGeometry relative="1" as="geometry" />
        </mxCell>
        <mxCell id="DekP-fdwlb1rMsyHYvmg-5" value="liczbaProb = 3" style="rounded=0;whiteSpace=wrap;html=1;" vertex="1" parent="1">
          <mxGeometry x="364" y="190" width="100" height="50" as="geometry" />
        </mxCell>
        <mxCell id="DekP-fdwlb1rMsyHYvmg-7" value="Wprowadz dane&lt;div&gt;lgowania&lt;/div&gt;" style="rounded=0;whiteSpace=wrap;html=1;" vertex="1" parent="1">
          <mxGeometry x="364" y="270" width="100" height="50" as="geometry" />
        </mxCell>
        <mxCell id="DekP-fdwlb1rMsyHYvmg-12" style="edgeStyle=orthogonalEdgeStyle;rounded=0;orthogonalLoop=1;jettySize=auto;html=1;exitX=1;exitY=0.5;exitDx=0;exitDy=0;exitPerimeter=0;entryX=0.5;entryY=0;entryDx=0;entryDy=0;" edge="1" parent="1" source="DekP-fdwlb1rMsyHYvmg-9" target="DekP-fdwlb1rMsyHYvmg-11">
          <mxGeometry relative="1" as="geometry" />
        </mxCell>
        <mxCell id="DekP-fdwlb1rMsyHYvmg-13" value="Pprawne" style="edgeLabel;html=1;align=center;verticalAlign=middle;resizable=0;points=[];" vertex="1" connectable="0" parent="DekP-fdwlb1rMsyHYvmg-12">
          <mxGeometry x="-0.3533" y="-1" relative="1" as="geometry">
            <mxPoint as="offset" />
          </mxGeometry>
        </mxCell>
        <mxCell id="DekP-fdwlb1rMsyHYvmg-15" style="edgeStyle=orthogonalEdgeStyle;rounded=0;orthogonalLoop=1;jettySize=auto;html=1;exitX=0;exitY=0.5;exitDx=0;exitDy=0;exitPerimeter=0;entryX=0.5;entryY=0;entryDx=0;entryDy=0;" edge="1" parent="1" source="DekP-fdwlb1rMsyHYvmg-9" target="DekP-fdwlb1rMsyHYvmg-14">
          <mxGeometry relative="1" as="geometry" />
        </mxCell>
        <mxCell id="DekP-fdwlb1rMsyHYvmg-16" value="Nie poprawne" style="edgeLabel;html=1;align=center;verticalAlign=middle;resizable=0;points=[];" vertex="1" connectable="0" parent="DekP-fdwlb1rMsyHYvmg-15">
          <mxGeometry x="-0.43" y="2" relative="1" as="geometry">
            <mxPoint as="offset" />
          </mxGeometry>
        </mxCell>
        <mxCell id="DekP-fdwlb1rMsyHYvmg-9" value="Czy poprawne?" style="strokeWidth=2;html=1;shape=mxgraph.flowchart.decision;whiteSpace=wrap;" vertex="1" parent="1">
          <mxGeometry x="384" y="350" width="60" height="60" as="geometry" />
        </mxCell>
        <mxCell id="DekP-fdwlb1rMsyHYvmg-10" style="edgeStyle=orthogonalEdgeStyle;rounded=0;orthogonalLoop=1;jettySize=auto;html=1;exitX=0.5;exitY=1;exitDx=0;exitDy=0;entryX=0.5;entryY=0;entryDx=0;entryDy=0;entryPerimeter=0;" edge="1" parent="1" source="DekP-fdwlb1rMsyHYvmg-7" target="DekP-fdwlb1rMsyHYvmg-9">
          <mxGeometry relative="1" as="geometry" />
        </mxCell>
        <mxCell id="DekP-fdwlb1rMsyHYvmg-11" value="Zaloguj uÅ¼ytkownika" style="rounded=0;whiteSpace=wrap;html=1;" vertex="1" parent="1">
          <mxGeometry x="464" y="430" width="100" height="50" as="geometry" />
        </mxCell>
        <mxCell id="DekP-fdwlb1rMsyHYvmg-14" value="liczbaProb - 1" style="rounded=0;whiteSpace=wrap;html=1;" vertex="1" parent="1">
          <mxGeometry x="264" y="430" width="100" height="50" as="geometry" />
        </mxCell>
        <mxCell id="DekP-fdwlb1rMsyHYvmg-19" style="edgeStyle=orthogonalEdgeStyle;rounded=0;orthogonalLoop=1;jettySize=auto;html=1;exitX=0;exitY=0.5;exitDx=0;exitDy=0;exitPerimeter=0;entryX=0;entryY=0.5;entryDx=0;entryDy=0;" edge="1" parent="1" source="DekP-fdwlb1rMsyHYvmg-17" target="DekP-fdwlb1rMsyHYvmg-7">
          <mxGeometry relative="1" as="geometry">
            <Array as="points">
              <mxPoint x="230" y="550" />
              <mxPoint x="230" y="295" />
            </Array>
          </mxGeometry>
        </mxCell>
        <mxCell id="DekP-fdwlb1rMsyHYvmg-20" value="liczbaProb &amp;gt; 0" style="edgeLabel;html=1;align=center;verticalAlign=middle;resizable=0;points=[];" vertex="1" connectable="0" parent="DekP-fdwlb1rMsyHYvmg-19">
          <mxGeometry x="-0.1819" y="2" relative="1" as="geometry">
            <mxPoint as="offset" />
          </mxGeometry>
        </mxCell>
        <mxCell id="DekP-fdwlb1rMsyHYvmg-22" style="edgeStyle=orthogonalEdgeStyle;rounded=0;orthogonalLoop=1;jettySize=auto;html=1;exitX=0.5;exitY=1;exitDx=0;exitDy=0;exitPerimeter=0;entryX=0.5;entryY=0;entryDx=0;entryDy=0;" edge="1" parent="1" source="DekP-fdwlb1rMsyHYvmg-17" target="DekP-fdwlb1rMsyHYvmg-21">
          <mxGeometry relative="1" as="geometry" />
        </mxCell>
        <mxCell id="DekP-fdwlb1rMsyHYvmg-23" value="liczbaProb &amp;lt;= 0" style="edgeLabel;html=1;align=center;verticalAlign=middle;resizable=0;points=[];" vertex="1" connectable="0" parent="DekP-fdwlb1rMsyHYvmg-22">
          <mxGeometry x="-0.3467" relative="1" as="geometry">
            <mxPoint as="offset" />
          </mxGeometry>
        </mxCell>
        <mxCell id="DekP-fdwlb1rMsyHYvmg-17" value="liczbaProb &amp;gt; 0?" style="strokeWidth=2;html=1;shape=mxgraph.flowchart.decision;whiteSpace=wrap;" vertex="1" parent="1">
          <mxGeometry x="284" y="520" width="60" height="60" as="geometry" />
        </mxCell>
        <mxCell id="DekP-fdwlb1rMsyHYvmg-18" style="edgeStyle=orthogonalEdgeStyle;rounded=0;orthogonalLoop=1;jettySize=auto;html=1;exitX=0.5;exitY=1;exitDx=0;exitDy=0;entryX=0.5;entryY=0;entryDx=0;entryDy=0;entryPerimeter=0;" edge="1" parent="1" source="DekP-fdwlb1rMsyHYvmg-14" target="DekP-fdwlb1rMsyHYvmg-17">
          <mxGeometry relative="1" as="geometry" />
        </mxCell>
        <mxCell id="DekP-fdwlb1rMsyHYvmg-21" value="Zablokuj konto" style="rounded=0;whiteSpace=wrap;html=1;" vertex="1" parent="1">
          <mxGeometry x="264" y="610" width="100" height="50" as="geometry" />
        </mxCell>
        <mxCell id="DekP-fdwlb1rMsyHYvmg-24" value="" style="shape=mxgraph.sysml.actFinal;html=1;verticalLabelPosition=bottom;labelBackgroundColor=#ffffff;verticalAlign=top;" vertex="1" parent="1">
          <mxGeometry x="460" y="565" width="40" height="40" as="geometry" />
        </mxCell>
        <mxCell id="DekP-fdwlb1rMsyHYvmg-25" style="edgeStyle=orthogonalEdgeStyle;rounded=0;orthogonalLoop=1;jettySize=auto;html=1;exitX=0.5;exitY=1;exitDx=0;exitDy=0;entryX=0.5;entryY=0;entryDx=0;entryDy=0;entryPerimeter=0;" edge="1" parent="1" source="DekP-fdwlb1rMsyHYvmg-11" target="DekP-fdwlb1rMsyHYvmg-24">
          <mxGeometry relative="1" as="geometry" />
        </mxCell>
        <mxCell id="DekP-fdwlb1rMsyHYvmg-26" style="edgeStyle=orthogonalEdgeStyle;rounded=0;orthogonalLoop=1;jettySize=auto;html=1;exitX=1;exitY=0.5;exitDx=0;exitDy=0;entryX=0;entryY=0.5;entryDx=0;entryDy=0;entryPerimeter=0;" edge="1" parent="1" source="DekP-fdwlb1rMsyHYvmg-21" target="DekP-fdwlb1rMsyHYvmg-24">
          <mxGeometry relative="1" as="geometry" />
        </mxCell>
      </root>
    </mxGraphModel>
  </diagram>
</mxfile>
